<svg width="200px" height="142px" x="0px" y="0px" viewBox="0 0 200 142" xmlns="http://www.w3.org/2000/svg" version="1.1" style="transform: translate(0,0)"><rect x="0" y="0" width="200" height="142" style="fill:#ffffff;"/><g transform="translate(10, 10)" style="fill:#000000;"><rect x="0" y="0" width="4" height="100"/><rect x="6" y="0" width="2" height="100"/><rect x="12" y="0" width="2" height="100"/><rect x="22" y="0" width="2" height="100"/><rect x="32" y="0" width="2" height="100"/><rect x="38" y="0" width="4" height="100"/><rect x="44" y="0" width="2" height="100"/><rect x="48" y="0" width="2" height="100"/><rect x="54" y="0" width="8" height="100"/><rect x="66" y="0" width="4" height="100"/><rect x="74" y="0" width="6" height="100"/><rect x="84" y="0" width="2" height="100"/><rect x="88" y="0" width="6" height="100"/><rect x="96" y="0" width="4" height="100"/><rect x="102" y="0" width="6" height="100"/><rect x="110" y="0" width="2" height="100"/><rect x="114" y="0" width="8" height="100"/><rect x="126" y="0" width="2" height="100"/><rect x="132" y="0" width="2" height="100"/><rect x="136" y="0" width="4" height="100"/><rect x="144" y="0" width="2" height="100"/><rect x="154" y="0" width="4" height="100"/><rect x="164" y="0" width="6" height="100"/><rect x="172" y="0" width="2" height="100"/><rect x="176" y="0" width="4" height="100"/><text style="font: 20px monospace" text-anchor="middle" x="90" y="122">dp27s</text></g></svg>